<?xml version="1.0" encoding="utf-8"?>
<!-- Generator: Adobe Illustrator 22.1.0, SVG Export Plug-In . SVG Version: 6.00 Build 0)  -->
<svg version="1.1" id="레이어_1" xmlns="http://www.w3.org/2000/svg" xmlns:xlink="http://www.w3.org/1999/xlink" x="0px"
	 y="0px" viewBox="0 0 454 416" style="enable-background:new 0 0 454 416;" xml:space="preserve">
<g>
	<g>
		<path d="M217.9,43.2c-2.5,3.7-5.3,8.1-8.4,13.2c-3.1,5.1-6.4,10.9-9.9,17.3c-3,5.3-5.9,11-8.8,16.9c-2.9,6-5.6,11.9-8.3,17.8
			c-2.6,5.9-5.1,11.5-7.3,16.9c-2.2,5.4-4.1,10.2-5.8,14.3c-1.6,4.1-2.9,7.4-3.9,9.9c-0.9,2.5-1.4,3.8-1.4,3.8
			c-0.6,1.5-1.6,2.2-3.2,2.2c-0.8,0-1.4-0.2-2-0.7c-0.6-0.5-1-1.1-1.1-1.9c0-0.1-0.3-1.3-0.8-3.7c-0.6-2.4-1.3-5.7-2.2-9.7
			c-0.9-4.1-2-8.7-3.2-14c-1.2-5.3-2.5-10.8-3.8-16.5c-1.3-5.7-2.6-11.6-4-17.5c-1.3-5.9-2.6-11.5-3.8-16.8
			c-3.9,11-7.8,20.8-11.8,29.3c-3.9,8.5-8,15.9-12.1,22.2c-4.1,6.3-8.4,11.5-12.8,15.8c-4.4,4.3-9,7.7-13.8,10.3
			c-4.8,2.6-9.9,4.5-15.1,5.6c-5.3,1.1-10.9,1.7-16.8,1.7c-3,0-6.3-0.3-9.7-1c-3.4-0.7-6.9-1.7-10.2-3.1c-3.4-1.4-6.6-3.2-9.7-5.3
			c-3.1-2.1-5.8-4.6-8.2-7.5c-2.4-2.9-4.3-6.2-5.7-9.8c-1.4-3.6-2.1-7.7-2.1-12.2c0-4.7,1-9.1,3-13c2-3.9,4.7-7.3,8.1-10.2
			c3.4-2.8,7.3-5,11.8-6.6c4.5-1.6,9.2-2.4,14.1-2.4c3.6,0,6.9,0.3,9.8,0.9c2.9,0.6,5.4,1.4,7.7,2.3c2.2,0.9,4.1,2,5.7,3.1
			c1.6,1.1,2.9,2.1,3.9,3.1c1.1,0.9,1.8,1.7,2.3,2.4c0.5,0.7,0.7,1,0.8,1c0.4,0.6,0.5,1.3,0.5,1.8c0,0.8-0.3,1.6-0.9,2.3
			c-0.6,0.7-1.4,1.1-2.4,1.1c-1.2,0-2.1-0.5-2.8-1.5c-0.1-0.1-0.5-0.6-1.4-1.6c-0.9-1-2.3-2.1-4.3-3.4c-2-1.2-4.5-2.3-7.7-3.3
			c-3.1-1-6.9-1.5-11.4-1.5c-4.1,0-8,0.6-11.6,1.9c-3.6,1.3-6.8,3-9.5,5.3c-2.7,2.3-4.9,5-6.5,8.1c-1.6,3.1-2.4,6.6-2.4,10.3
			c0,3.7,0.6,7,1.8,10.1c1.2,3,2.9,5.8,4.9,8.1c2,2.4,4.4,4.5,7.1,6.2c2.7,1.8,5.5,3.2,8.4,4.3c2.9,1.1,5.9,2,8.8,2.5
			c2.9,0.6,5.7,0.8,8.4,0.8c4.4,0,8.8-0.3,13-1c4.2-0.7,8.4-1.9,12.5-3.8c4.1-1.9,8.2-4.4,12.1-7.7c4-3.3,7.9-7.5,11.8-12.8
			c3.9-5.3,7.8-11.6,11.6-19c3.8-7.4,7.7-16.2,11.5-26.3c1.2-3,2.3-6.3,3.4-9.8c1.1-3.5,2.2-7,3.4-10.6c-1-5.1-1.7-9.5-2.1-13.1
			c-0.4-3.6-0.7-6.6-0.7-9c0-2.6,0.2-4.6,0.6-6.1c0.4-1.5,0.9-2.7,1.6-3.5c0.6-0.8,1.3-1.3,2.1-1.5c0.8-0.2,1.5-0.3,2.2-0.3
			c0.6,0,1.2,0.1,2,0.4c0.7,0.2,1.4,0.7,2,1.5c0.6,0.8,1.1,1.9,1.5,3.5c0.4,1.5,0.6,3.6,0.6,6.1c0,2.8-0.3,6-0.8,9.7
			c-0.5,3.7-1.3,7.7-2.4,12.2c0.8,3.6,1.6,7.5,2.6,11.9c1,4.4,2,8.9,3.1,13.6c1.1,4.7,2.1,9.5,3.2,14.4c1.1,4.9,2.2,9.7,3.2,14.4
			c1.1,4.7,2.1,9.1,3,13.4c1,4.3,1.9,8.1,2.7,11.6c1.6-4,3.5-8.8,5.8-14.4c2.3-5.6,4.8-11.6,7.6-18c2.8-6.3,5.8-12.8,8.9-19.4
			c3.1-6.6,6.3-12.8,9.6-18.6c4.6-8.3,8.8-15.4,12.7-21.3c3.9-5.9,7.2-10.8,10-14.7c2.8-3.9,5-6.7,6.6-8.5c1.6-1.8,2.5-2.8,2.6-3
			c0.6-0.6,1.4-1,2.4-1c1,0,1.8,0.3,2.4,1c0.6,0.7,0.9,1.4,0.9,2.3c0,0.4-0.1,0.8-0.3,1.2c0,0.1-0.3,0.9-1,2.6
			c-0.7,1.7-1.5,3.9-2.5,6.8c-1,2.9-2.1,6.3-3.4,10.2c-1.2,3.9-2.4,8.1-3.6,12.5c-1.2,4.5-2.2,9.1-3.1,14c-0.9,4.9-1.6,9.7-2,14.6
			c-0.2,2.2-0.3,4.5-0.4,7c-0.1,2.4-0.2,4.9-0.2,7.3c0,3.9,0.2,7.7,0.5,11.6c0.4,3.9,0.9,7.7,1.8,11.3c0.8,3.6,1.9,7,3.3,10.2
			c1.4,3.2,3.1,6,5.2,8.4c2,2.4,4.5,4.3,7.3,5.8c2.8,1.5,6.1,2.2,9.9,2.4c0.9,0.1,1.7,0.5,2.2,1.2c0.6,0.7,0.8,1.5,0.8,2.3
			c0,0.8-0.3,1.5-1,2.2c-0.6,0.6-1.4,1-2.3,1c-0.9,0-1.9-0.1-2.8-0.3c-4.2-0.6-7.9-1.8-11.1-3.6c-3.2-1.8-6-4.1-8.3-6.8
			c-2.3-2.7-4.3-5.8-5.8-9.3c-1.5-3.5-2.8-7.2-3.7-11.2c-0.9-4-1.6-8.1-2-12.4c-0.4-4.3-0.6-8.6-0.6-13c0-5.2,0.3-10.4,0.8-15.6
			c0.5-5.2,1.2-10.3,2.1-15.2c0.9-4.9,1.9-9.7,3.1-14.3C215.4,51.4,216.6,47.1,217.9,43.2z"/>
		<path d="M57.6,161.2c-3.1,0-6.5-0.4-10.1-1c-3.6-0.7-7.1-1.8-10.6-3.2c-3.5-1.4-6.9-3.3-10.1-5.4c-3.2-2.2-6.1-4.8-8.6-7.9
			c-2.5-3-4.5-6.5-6-10.3c-1.5-3.9-2.2-8.2-2.2-12.9c0-5,1.1-9.7,3.2-13.9c2.1-4.2,5-7.8,8.5-10.8c3.5-3,7.7-5.3,12.4-7
			c4.7-1.6,9.6-2.5,14.8-2.5c3.7,0,7.2,0.3,10.2,1c3,0.6,5.7,1.5,8,2.4c2.3,1,4.4,2.1,6.1,3.3c1.6,1.1,3,2.2,4.1,3.2
			c1.2,1,2,1.9,2.6,2.7c0,0.1,0.1,0.1,0.1,0.2h0.2l0.5,1c0.5,0.9,0.8,1.9,0.8,2.8c0,1.3-0.5,2.5-1.4,3.5c-1,1.1-2.3,1.7-3.9,1.7
			c-1.8,0-3.2-0.8-4.3-2.2c-0.2-0.2-0.5-0.6-1.4-1.6c-0.7-0.9-2-1.9-3.8-3c-1.8-1.1-4.3-2.2-7.2-3.1c-2.9-0.9-6.6-1.4-10.8-1.4
			c-3.9,0-7.5,0.6-11,1.8c-3.4,1.2-6.4,2.8-8.9,5c-2.5,2.1-4.5,4.6-6,7.5c-1.5,2.8-2.2,6-2.2,9.4c0,3.4,0.6,6.6,1.7,9.3
			c1.1,2.8,2.7,5.4,4.6,7.6c1.9,2.2,4.2,4.2,6.7,5.9c2.6,1.7,5.3,3.1,8.1,4.2c2.8,1.1,5.6,1.9,8.5,2.4c2.8,0.5,5.5,0.8,8,0.8
			c4.3,0,8.6-0.3,12.7-1c4-0.6,8.1-1.9,12-3.7c3.9-1.8,7.9-4.3,11.7-7.4c3.8-3.2,7.7-7.3,11.5-12.4c3.8-5.1,7.7-11.5,11.4-18.7
			c3.8-7.3,7.6-16.1,11.4-26.1c1.1-3,2.3-6.2,3.4-9.7c1.1-3.3,2.2-6.7,3.3-10.1c-0.9-4.9-1.6-9.2-2.1-12.8c-0.4-3.7-0.7-6.8-0.7-9.3
			c0-2.8,0.2-4.9,0.7-6.6c0.5-1.8,1.1-3.2,1.9-4.2c0.9-1.1,1.9-1.8,3.1-2.1c0.9-0.2,1.8-0.4,2.7-0.4c0.8,0,1.6,0.1,2.6,0.4
			c1.1,0.4,2.1,1.1,3,2.2c0.8,1,1.4,2.4,1.9,4.1c0.5,1.7,0.7,3.9,0.7,6.6c0,2.9-0.3,6.2-0.8,10c-0.5,3.6-1.3,7.6-2.3,11.9
			c0.7,3.4,1.6,7.3,2.5,11.5c1,4.4,2,8.9,3.1,13.6c1.1,4.7,2.1,9.5,3.2,14.4c1.1,4.9,2.2,9.7,3.2,14.4c1.1,4.7,2.1,9.1,3,13.4
			c0.4,1.9,0.9,3.8,1.3,5.6c1.1-2.6,2.2-5.5,3.5-8.7c2.3-5.6,4.8-11.7,7.6-18c2.8-6.3,5.8-12.9,8.9-19.4c3.1-6.6,6.4-12.9,9.6-18.7
			c4.6-8.3,8.9-15.5,12.8-21.4c3.9-5.9,7.2-10.9,10-14.8c2.9-3.9,5.1-6.8,6.7-8.7c2.1-2.4,2.4-2.8,2.5-2.9l0.1-0.2l0.1-0.1
			c1-1,2.3-1.5,3.7-1.5c1.5,0,2.9,0.6,3.8,1.6c0.9,1,1.4,2.3,1.4,3.6c0,0.6-0.1,1.2-0.4,1.9c-0.1,0.4-0.4,1.1-1,2.7
			c-0.7,1.6-1.5,3.9-2.5,6.8c-1,2.8-2.1,6.2-3.4,10.1c-1.2,3.9-2.4,8-3.6,12.4c-1.1,4.4-2.2,9.1-3.1,13.9c-0.9,4.8-1.5,9.6-1.9,14.4
			c-0.2,2.2-0.3,4.5-0.4,6.9c-0.1,2.4-0.2,4.8-0.2,7.2c0,3.8,0.2,7.6,0.5,11.5c0.3,3.8,0.9,7.5,1.7,11c0.8,3.5,1.9,6.8,3.2,9.8
			c1.3,3,3,5.6,4.9,7.9c1.9,2.2,4.1,4,6.7,5.3c2.6,1.3,5.6,2,9,2.2c1.6,0.1,2.8,0.8,3.7,1.9c0.8,1.1,1.2,2.2,1.2,3.5
			c0,1.3-0.5,2.6-1.5,3.6c-1,1-2.3,1.5-3.6,1.5c-1,0-2.1-0.1-3.1-0.3c-4.4-0.6-8.4-1.9-11.8-3.9c-3.4-1.9-6.4-4.4-8.8-7.2
			c-2.4-2.8-4.5-6.1-6.1-9.8c-1.6-3.6-2.9-7.4-3.8-11.5c-1-4-1.6-8.3-2-12.7c-0.4-4.3-0.6-8.7-0.6-13.2c0-5.2,0.3-10.5,0.8-15.8
			c0.5-5.2,1.2-10.4,2.1-15.3c0.9-5,1.9-9.8,3.1-14.5c0-0.2,0.1-0.3,0.1-0.5c-0.5,0.8-0.9,1.5-1.4,2.3c-3.1,5.1-6.4,10.9-9.9,17.2
			c-3,5.3-5.9,10.9-8.8,16.9c-2.9,6-5.7,11.9-8.3,17.7c-2.6,5.8-5,11.5-7.2,16.8c-2.2,5.4-4.1,10.2-5.8,14.3
			c-1.6,4.1-2.9,7.4-3.8,9.9c-0.8,2.2-1.2,3.1-1.3,3.4v0.1l-0.1,0.3c-0.9,2.2-2.6,3.4-4.9,3.4c-1.2,0-2.3-0.4-3.3-1.2
			c-0.9-0.8-1.5-1.7-1.8-2.9l0-0.3c-0.1-0.3-0.2-1.1-0.8-3.5l-2.2-9.7c-0.9-4.1-2-8.7-3.2-14c-1.2-5.3-2.5-10.8-3.8-16.5
			c-1.3-5.7-2.6-11.6-4-17.5c-0.8-3.5-1.6-7-2.3-10.3c-3.2,8.6-6.4,16.3-9.6,23.2c-4,8.5-8.1,16.1-12.3,22.4
			c-4.2,6.4-8.6,11.8-13.1,16.1c-4.5,4.4-9.3,7.9-14.3,10.6c-5,2.7-10.2,4.6-15.7,5.8C69.4,160.6,63.6,161.2,57.6,161.2z M48.9,90.2
			c-4.7,0-9.3,0.8-13.5,2.3c-4.2,1.5-8,3.6-11.2,6.3c-3.2,2.6-5.7,5.9-7.6,9.5c-1.8,3.6-2.8,7.7-2.8,12.1c0,4.2,0.7,8.1,2,11.5
			c1.3,3.4,3.1,6.6,5.4,9.3c2.3,2.7,4.9,5.1,7.8,7.1c3,2,6.1,3.7,9.4,5.1c3.2,1.3,6.6,2.4,9.9,3c3.3,0.6,6.5,1,9.3,1
			c5.7,0,11.2-0.5,16.4-1.6c5.1-1.1,10-2.9,14.6-5.4c4.6-2.5,9.1-5.9,13.4-10c4.3-4.1,8.5-9.3,12.6-15.5c4.1-6.2,8.1-13.5,12-21.9
			c3.9-8.4,7.8-18.2,11.7-29.1l2.3-6.4l1.4,6.6c1.2,5.3,2.4,11,3.8,16.8c1.3,5.9,2.7,11.7,4,17.5c1.3,5.8,2.6,11.3,3.8,16.6
			c1.2,5.3,2.3,9.9,3.2,14l2.2,9.7c0.6,2.4,0.8,3.3,0.8,3.7c0.1,0.3,0.2,0.6,0.5,0.8c0.2,0.2,0.5,0.3,0.8,0.3c0.6,0,1-0.1,1.3-0.9
			c0.2-0.5,0.5-1.5,1.4-3.8c0.9-2.5,2.2-5.8,3.9-9.9c1.6-4.1,3.6-8.9,5.8-14.3c2.2-5.4,4.7-11.1,7.3-17c2.6-5.8,5.4-11.8,8.3-17.8
			c2.9-6,5.9-11.7,8.9-17c3.5-6.4,6.8-12.2,9.9-17.3c3.1-5.1,5.9-9.6,8.5-13.3l7.2-10.6l-3.8,12.2c-1.2,3.9-2.4,8.2-3.6,12.8
			c-1.1,4.5-2.2,9.3-3,14.2c-0.9,4.9-1.6,9.9-2.1,15c-0.5,5.1-0.8,10.3-0.8,15.4c0,4.3,0.2,8.6,0.6,12.8c0.4,4.2,1,8.3,1.9,12.1
			c0.9,3.8,2.1,7.5,3.6,10.8c1.5,3.3,3.3,6.2,5.5,8.8c2.2,2.5,4.8,4.7,7.8,6.4c3,1.7,6.5,2.8,10.4,3.4l0.1,0
			c0.8,0.2,1.6,0.2,2.4,0.2c0.4,0,0.6-0.1,0.9-0.4c0.3-0.3,0.4-0.6,0.4-0.8c0-0.2,0-0.6-0.4-1.2c-0.2-0.3-0.4-0.4-0.8-0.4
			c-3.9-0.1-7.5-1-10.6-2.6c-3-1.6-5.7-3.7-7.9-6.2c-2.2-2.5-4-5.5-5.5-8.8c-1.4-3.3-2.6-6.8-3.4-10.6c-0.8-3.7-1.4-7.6-1.8-11.5
			c-0.4-3.9-0.5-7.9-0.5-11.8c0-2.5,0.1-5,0.2-7.4c0.1-2.4,0.3-4.8,0.4-7c0.4-4.9,1.1-9.9,2-14.8c0.9-4.9,2-9.7,3.1-14.1
			c1.2-4.5,2.4-8.7,3.6-12.6c1.2-3.9,2.4-7.3,3.4-10.2c1-2.9,1.9-5.2,2.6-6.9c0.5-1.3,0.8-1.9,0.9-2.2V26l0.2-0.4
			c0.1-0.2,0.1-0.3,0.1-0.5c0-0.4-0.1-0.7-0.4-1c-0.2-0.2-0.4-0.4-1-0.4c-0.4,0-0.7,0.1-0.9,0.3c-0.2,0.3-0.8,1-2.6,3
			c-1.6,1.8-3.7,4.6-6.5,8.4c-2.8,3.8-6.1,8.7-9.9,14.6c-3.8,5.9-8.1,13-12.6,21.2c-3.2,5.8-6.4,12-9.5,18.5
			c-3.1,6.5-6.1,13-8.9,19.3c-2.8,6.3-5.3,12.3-7.6,17.9c-2.3,5.7-4.2,10.5-5.8,14.4l-2.3,5.7l-1.4-6c-0.8-3.4-1.7-7.3-2.7-11.6
			c-1-4.3-2-8.7-3-13.4c-1.1-4.7-2.1-9.5-3.2-14.4c-1.1-4.9-2.2-9.7-3.2-14.4c-1.1-4.7-2.1-9.2-3.1-13.6c-1-4.4-1.9-8.4-2.6-11.9
			l-0.1-0.4l0.1-0.4c1-4.4,1.8-8.4,2.3-12c0.5-3.6,0.8-6.7,0.8-9.4c0-2.4-0.2-4.3-0.5-5.6c-0.4-1.6-0.9-2.4-1.2-2.8
			c-0.4-0.5-0.7-0.8-1.1-0.9c-0.5-0.2-1-0.3-1.4-0.3c-0.5,0-1.1,0.1-1.7,0.2c-0.4,0.1-0.7,0.4-1.1,0.8c-0.3,0.4-0.8,1.2-1.2,2.7
			c-0.4,1.3-0.5,3.2-0.5,5.6c0,2.3,0.2,5.3,0.6,8.8c0.4,3.6,1.1,7.9,2.1,13l0.1,0.5l-0.2,0.5c-1.2,3.5-2.3,7.1-3.4,10.6
			c-1.1,3.5-2.3,6.9-3.5,9.9c-3.9,10.1-7.8,19-11.6,26.5c-3.9,7.5-7.8,14-11.8,19.3c-4,5.4-8.1,9.8-12.1,13.1c-4.1,3.4-8.3,6-12.6,8
			c-4.3,1.9-8.6,3.3-13,4c-4.3,0.7-8.8,1-13.3,1c-2.7,0-5.7-0.3-8.7-0.9c-3-0.6-6.1-1.5-9.1-2.6c-3-1.2-6-2.7-8.8-4.5
			c-2.8-1.8-5.4-4.1-7.5-6.6c-2.2-2.5-3.9-5.5-5.2-8.7c-1.3-3.3-2-6.9-2-10.8c0-4,0.9-7.8,2.6-11.2c1.7-3.3,4.1-6.3,7-8.7
			c2.9-2.4,6.3-4.3,10.2-5.6c3.8-1.3,8-2,12.2-2c4.7,0,8.7,0.5,12,1.6c3.3,1,6,2.2,8.1,3.5c2.2,1.3,3.7,2.6,4.7,3.8
			c0.7,0.9,1.2,1.4,1.3,1.5l0.1,0.1l0.1,0.1c0.4,0.6,0.8,0.7,1.2,0.7c0.5,0,0.8-0.2,1-0.4c0.4-0.5,0.4-0.8,0.4-1
			c0-0.2-0.1-0.4-0.2-0.7c-0.3-0.3-0.5-0.6-0.8-1.1c-0.3-0.4-0.8-1-2-2.1c-1-0.9-2.3-1.9-3.8-2.9c-1.5-1-3.2-2-5.3-2.9
			c-2.1-0.9-4.6-1.6-7.3-2.2C55.5,90.5,52.3,90.2,48.9,90.2z"/>
	</g>
	<g>
		<path d="M283.5,157.2c2-2,4.1-4.1,6.2-6.3c2.1-2.1,4.1-4.4,6.1-6.7c2-2.3,3.8-4.8,5.6-7.3c1.7-2.5,3.3-5.2,4.6-8.1
			c0.3-0.6,0.7-1.1,1.2-1.4c0.5-0.3,1.1-0.5,1.8-0.5c1,0,1.8,0.4,2.4,1.1c0.6,0.7,0.9,1.5,0.9,2.4c0,0.5-0.1,0.9-0.3,1.3
			c-1.8,3.8-3.9,7.3-6.2,10.4c-2.3,3.2-4.8,6.1-7.4,9c-2.6,2.8-5.2,5.6-7.8,8.2c-2.6,2.7-5.1,5.3-7.5,8c-0.2,4-0.2,8.1,0,12.1
			c0.2,4.1,0.4,8.4,0.4,12.9c0,3.7-0.1,7.5-0.4,11.2c-0.2,3.7-0.6,7.3-1.1,10.7c-0.5,3.4-1.2,6.6-2.1,9.6c-0.9,3-2.1,5.6-3.5,7.7
			c-1.4,2.2-3,3.9-4.9,5.2c-1.9,1.3-4.1,1.9-6.6,1.9c-4.1,0-7.3-1.4-9.5-4.3c-2.2-2.9-3.3-6.9-3.3-12c0-2.8,0.3-5.8,0.9-9
			c0.6-3.2,1.5-6.5,2.6-9.9c1.1-3.4,2.4-6.9,4-10.4c1.5-3.5,3.2-6.9,5-10.2c1.8-3.3,3.7-6.5,5.8-9.5c2-3,4.1-5.7,6.2-8.2
			c0.1-2.8,0.2-5.7,0.4-8.7c0.1-3,0.3-5.8,0.5-8.4c-1.5,2.7-3.4,4.8-5.6,6.5c-2.2,1.6-4.7,2.5-7.4,2.5c-4.4,0-7.9-1.5-10.4-4.5
			c-2.5-3-3.8-7.1-3.8-12.3c0-3.8,0.4-7.3,1.1-10.4c0.7-3.1,1.5-5.8,2.4-8.1c0.8-2.2,1.6-4,2.3-5.2c0.7-1.2,1.1-1.8,1.1-1.7
			c0.6-1,1.5-1.5,2.7-1.5c1,0,1.8,0.3,2.4,1c0.6,0.7,0.9,1.4,0.9,2.3c0,0.6-0.2,1.2-0.5,1.8c0.1-0.1-0.2,0.4-0.8,1.4
			c-0.6,1-1.3,2.5-2,4.4c-0.7,1.9-1.4,4.2-2,6.9c-0.6,2.7-0.9,5.6-0.9,8.8c0,3.2,0.6,5.7,1.8,7.5c1.2,1.8,3.1,2.7,5.7,2.7
			c3.3,0,6.3-2.5,9-7.4c2.7-4.9,5-12.1,6.8-21.5c0.1-0.8,0.5-1.4,1.1-1.9c0.6-0.5,1.3-0.7,2.1-0.7c0.9,0,1.7,0.3,2.4,1
			c0.6,0.6,1,1.4,1,2.4c0,0.2-0.1,1.2-0.4,3.1c-0.2,1.9-0.5,4.4-0.8,7.6c-0.3,3.2-0.7,6.8-1,11C284.1,148,283.8,152.4,283.5,157.2z
			 M276.5,175.7c-2.6,3.8-5,7.8-7.2,12c-2.2,4.2-4.1,8.4-5.6,12.5c-1.6,4.1-2.8,8.1-3.7,11.9c-0.9,3.8-1.3,7.2-1.3,10.2
			c0,3,0.5,5.4,1.5,7.1c1,1.7,2.6,2.6,4.7,2.6c1.9,0,3.6-0.9,5.1-2.8c1.5-1.9,2.7-4.6,3.8-8.1c1-3.5,1.8-7.7,2.3-12.7
			c0.5-5,0.8-10.6,0.8-16.8c0-2.5,0-5-0.1-7.6C276.7,181.4,276.6,178.6,276.5,175.7z"/>
		<path d="M265,240.5c-4.8,0-8.5-1.7-11.1-5c-2.5-3.2-3.7-7.6-3.7-13.2c0-2.9,0.3-6.1,1-9.4c0.6-3.3,1.5-6.7,2.6-10.2
			c1.1-3.5,2.5-7,4.1-10.6c1.6-3.5,3.3-7,5.1-10.4c1.8-3.4,3.8-6.6,5.9-9.7c1.9-2.8,3.9-5.5,5.9-7.8c0.1-2.6,0.2-5.3,0.4-8.1
			c0-0.7,0.1-1.4,0.1-2.1c-0.7,0.7-1.4,1.3-2.2,1.9c-2.6,1.9-5.4,2.8-8.5,2.8c-5,0-9-1.7-11.9-5.2c-2.8-3.3-4.2-7.9-4.2-13.5
			c0-3.9,0.4-7.6,1.1-10.8c0.7-3.2,1.6-6,2.4-8.3c0.9-2.4,1.7-4.2,2.5-5.5c0.4-0.8,0.8-1.3,1.1-1.8l0,0c1-1.6,2.5-2.4,4.3-2.4
			c1.5,0,2.9,0.6,3.8,1.6c0.9,1,1.4,2.3,1.4,3.6c0,1-0.3,2-0.9,2.8l0,0c-0.2,0.4-0.5,0.9-0.8,1.4c-0.6,0.9-1.2,2.3-1.9,4.1
			c-0.7,1.8-1.3,4.1-1.9,6.7c-0.6,2.5-0.9,5.4-0.9,8.4c0,2.8,0.5,5,1.4,6.5c0.5,0.8,1.5,1.8,4.1,1.8c2.5,0,5-2.2,7.3-6.4
			c2.6-4.7,4.8-11.8,6.6-20.9c0.2-1.2,0.8-2.2,1.7-3c0.9-0.8,2.1-1.2,3.4-1.2c1.4,0,2.7,0.5,3.7,1.5c1,1,1.5,2.3,1.5,3.7
			c0,0.2,0,0.4-0.4,3.3c-0.2,1.9-0.5,4.4-0.8,7.5c-0.3,3.1-0.7,6.8-1,11c-0.2,2.6-0.4,5.4-0.6,8.2c0.9-0.9,1.8-1.8,2.6-2.7
			c2.1-2.1,4.1-4.3,6-6.6c1.9-2.3,3.8-4.7,5.4-7.1c1.7-2.4,3.2-5.1,4.4-7.8c0.4-1,1.1-1.7,2-2.3c0.8-0.5,1.8-0.8,2.8-0.8
			c1.5,0,2.9,0.6,3.9,1.7c0.9,1.1,1.4,2.3,1.4,3.6c0,0.7-0.1,1.4-0.4,2.1l0,0.1c-1.9,3.9-4,7.5-6.4,10.7c-2.4,3.2-4.9,6.3-7.5,9.1
			c-2.6,2.8-5.2,5.6-7.9,8.3c-2.4,2.5-4.8,5-7,7.4c-0.2,3.7-0.2,7.5,0,11.2c0.2,4.1,0.4,8.5,0.4,13c0,3.7-0.1,7.5-0.4,11.3
			c-0.2,3.8-0.6,7.5-1.2,10.9c-0.5,3.5-1.3,6.8-2.2,9.9c-1,3.1-2.2,5.9-3.7,8.2c-1.5,2.4-3.4,4.3-5.5,5.7
			C270.4,239.8,267.9,240.5,265,240.5z M280,139.6l-0.6,8.5c-0.2,2.6-0.3,5.4-0.5,8.3c-0.1,3-0.3,5.9-0.4,8.7l0,0.7l-0.4,0.5
			c-2.1,2.4-4.1,5.1-6.1,8c-2,2.9-3.9,6.1-5.7,9.3c-1.8,3.3-3.5,6.7-5,10.1c-1.5,3.4-2.8,6.9-3.9,10.2c-1.1,3.3-1.9,6.6-2.5,9.7
			c-0.6,3.1-0.9,6-0.9,8.7c0,4.7,1,8.3,2.9,10.8c1.8,2.4,4.5,3.5,8,3.5c2.1,0,3.9-0.5,5.5-1.6c1.6-1.1,3.1-2.7,4.4-4.6
			c1.3-2,2.4-4.5,3.2-7.3c0.9-2.9,1.6-6,2.1-9.3c0.5-3.3,0.9-6.9,1.1-10.6c0.2-3.7,0.3-7.4,0.3-11.1c0-4.5-0.1-8.8-0.3-12.8
			c-0.2-4.1-0.2-8.3,0-12.4l0-0.7l0.4-0.5c2.4-2.7,5-5.4,7.6-8.1c2.6-2.6,5.2-5.4,7.7-8.2c2.5-2.8,4.9-5.7,7.2-8.8
			c2.2-3,4.3-6.4,6-10.1c0.1-0.2,0.1-0.3,0.1-0.5c0-0.4-0.1-0.7-0.4-1.1c-0.2-0.2-0.4-0.4-1-0.4c-0.3,0-0.5,0.1-0.7,0.2
			c-0.2,0.1-0.3,0.3-0.5,0.6c-1.4,3-3,5.8-4.8,8.4c-1.8,2.6-3.7,5.1-5.7,7.5c-2,2.4-4.1,4.7-6.2,6.8c-2.1,2.1-4.2,4.2-6.2,6.3
			l-3.5,3.5l0.2-5c0.2-4.7,0.5-9.2,0.9-13.4c0.4-4.2,0.7-7.9,1-11c0.3-3.1,0.6-5.7,0.8-7.6c0.3-2.3,0.3-2.8,0.3-2.9
			c0-0.4-0.1-0.7-0.4-0.9c-0.3-0.3-0.6-0.4-1-0.4c-0.5,0-0.7,0.2-0.9,0.3c-0.2,0.2-0.3,0.4-0.4,0.7l0,0.1c-1.9,9.5-4.3,17-7,22
			c-3,5.6-6.6,8.4-10.7,8.4c-4.1,0-6.3-2-7.3-3.6c-1.4-2.1-2.1-5-2.1-8.6c0-3.3,0.3-6.5,1-9.3c0.6-2.8,1.3-5.2,2.1-7.2
			c0.8-2,1.5-3.6,2.2-4.7c0.6-1,0.7-1.2,0.8-1.3c-0.4,0.7-0.2,1.8,0.6,2.4l1-1.4l-1.5-1.2c0.1-0.2,0.2-0.4,0.2-0.7
			c0-0.4-0.1-0.7-0.4-1c-0.2-0.2-0.4-0.4-1-0.4c-0.5,0-0.8,0.2-1.1,0.6l-0.5,0.7c-0.1,0.2-0.3,0.5-0.5,0.9c-0.6,1.1-1.4,2.7-2.2,4.9
			c-0.8,2.2-1.6,4.8-2.3,7.8c-0.7,3-1,6.3-1,9.9c0,4.7,1.1,8.4,3.3,11c2.1,2.5,5.1,3.8,8.9,3.8c2.3,0,4.3-0.7,6.3-2.1
			c2-1.5,3.7-3.4,5.1-5.9L280,139.6z M264.9,234c-2.8,0-5.1-1.2-6.4-3.6c-1.2-2-1.7-4.7-1.7-8.1c0-3.1,0.5-6.7,1.4-10.6
			c0.9-3.9,2.2-8,3.8-12.2c1.6-4.2,3.5-8.5,5.7-12.7c2.2-4.3,4.7-8.4,7.3-12.2l3.4-4.9l0.1,6c0.1,2.9,0.1,5.6,0.2,8.2
			c0.1,2.6,0.1,5.2,0.1,7.7c0,6.2-0.3,11.9-0.8,17c-0.5,5.1-1.3,9.5-2.4,13.1c-1.1,3.8-2.4,6.6-4.1,8.8
			C269.7,232.8,267.4,234,264.9,234z M274.8,182c-1.3,2.1-2.6,4.4-3.7,6.6c-2.1,4.1-4,8.3-5.6,12.3c-1.5,4-2.7,8-3.6,11.7
			c-0.8,3.6-1.3,6.9-1.3,9.7c0,2.7,0.4,4.8,1.2,6.2c0.6,1.1,1.6,1.6,3.1,1.6c1.3,0,2.5-0.7,3.6-2.1c1.3-1.7,2.5-4.2,3.4-7.4
			c1-3.4,1.7-7.5,2.3-12.4c0.5-4.9,0.8-10.5,0.8-16.6c0-2.5,0-5-0.1-7.6C274.8,183.4,274.8,182.7,274.8,182z"/>
	</g>
</g>
<g>
	<g>
		<path d="M219,218.6c-0.2,0.8-0.6,1.5-1.1,1.9c-0.6,0.5-1.2,0.7-1.9,0.7c-1.1,0-1.9-0.3-2.5-1c-0.6-0.7-1-1.4-1-2.3
			s0.1-1.7,0.3-2.6c0.2-0.8,0.3-1.7,0.3-2.5c0-4.3-1.3-8.1-3.9-11.5c-2.6-3.4-6.3-6.2-11.2-8.5c-4.8-2.3-10.7-4.1-17.6-5.3
			c-6.9-1.2-14.6-1.8-23-1.8c-6.5,0-13,0.4-19.6,1.3c-6.6,0.8-12.9,2.1-18.9,3.7c-6,1.6-11.7,3.6-16.9,6c-5.3,2.4-9.8,5.2-13.7,8.4
			c-3.9,3.2-6.9,6.7-9.2,10.6c-2.2,3.9-3.3,8.1-3.3,12.7c0,3.6,0.8,6.7,2.3,9.4c1.5,2.7,3.7,5.1,6.3,7.1c2.7,2,5.9,3.7,9.5,5.2
			c3.6,1.4,7.6,2.6,11.9,3.6c4.3,1,8.7,1.8,13.3,2.4c4.6,0.6,9.3,1.1,13.9,1.5l13.5,1.1c6.7,0.6,12.7,1.2,18,1.8
			c5.3,0.6,10,1.5,14,2.5c6.7,1.7,11.7,4.1,14.9,7.3c3.2,3.2,4.8,7.4,4.8,12.6c0,5.1-1.4,9.5-4.2,13.4c-2.8,3.9-6.6,7.1-11.5,9.7
			c-4.8,2.6-10.5,4.6-17,6c-6.5,1.3-13.4,2-20.8,2c-8.1,0-15.1-0.5-21.2-1.6c-6.1-1.1-11.2-2.3-15.3-3.6c-4.1-1.3-7.3-2.5-9.4-3.6
			c-2.2-1.1-3.3-1.7-3.5-1.8c-1.1-0.6-1.6-1.5-1.6-2.8c0-1,0.4-1.8,1.1-2.4c0.7-0.6,1.5-0.9,2.3-0.9c0.6,0,1.2,0.2,1.8,0.5
			c0.1,0,1.1,0.5,3,1.5c2,1,4.9,2.1,8.8,3.4c3.9,1.2,8.7,2.3,14.4,3.3c5.7,1,12.4,1.5,20,1.5c7.5,0,14.2-0.6,20-1.8
			c5.8-1.2,10.6-2.9,14.6-5.1c3.9-2.2,6.9-4.8,8.9-7.7c2-2.9,3-6.1,3-9.6c0-2-0.4-3.8-1.1-5.3c-0.7-1.5-1.7-2.8-3-3.9
			c-1.3-1.1-2.8-2-4.6-2.8c-1.8-0.8-3.7-1.4-5.8-1.9c-2.2-0.6-4.6-1.1-7.1-1.5c-2.5-0.4-5.2-0.8-7.8-1.1c-2.7-0.3-5.4-0.6-8.1-0.8
			c-2.7-0.2-5.4-0.5-8-0.7l-13.5-1.1c-10.6-0.9-19.9-2.2-27.8-4.1c-7.9-1.8-14.5-4.2-19.7-7.1c-5.3-2.9-9.2-6.3-11.8-10.4
			c-2.6-4-3.9-8.7-3.9-14.1c0-5.5,1.2-10.5,3.7-15.1c2.5-4.6,5.9-8.7,10.2-12.4c4.3-3.7,9.3-6.9,15.1-9.6c5.7-2.7,11.9-5,18.4-6.8
			c6.5-1.8,13.3-3.2,20.3-4.1c7-0.9,13.9-1.4,20.7-1.4c8.5,0,15.8,0.5,22.1,1.5c6.3,1,11.6,2.3,16.1,3.9c4.5,1.6,8.1,3.4,11,5.5
			c2.9,2,5.2,4.1,6.9,6c4.1,4.8,6.2,10.4,6.2,16.5C219.6,214.8,219.4,216.8,219,218.6z"/>
		<path d="M144.7,315.9c-8.1,0-15.4-0.6-21.6-1.6c-6.2-1.1-11.4-2.3-15.6-3.7c-4.3-1.4-7.4-2.6-9.7-3.8c-2.9-1.5-3.4-1.8-3.6-1.9
			c-1.6-0.9-2.5-2.5-2.5-4.5c0-1.5,0.6-2.9,1.7-3.9c1.1-0.9,2.3-1.4,3.6-1.4c1,0,1.9,0.2,2.7,0.7c0.5,0.2,1.3,0.7,3,1.5
			c1.8,1,4.7,2.1,8.4,3.2c3.8,1.2,8.5,2.3,14.2,3.3c5.6,1,12.2,1.5,19.6,1.5c7.4,0,13.9-0.6,19.6-1.8c5.6-1.2,10.3-2.8,14-4.9
			c3.7-2,6.4-4.4,8.3-7.1c1.8-2.6,2.7-5.4,2.7-8.5c0-1.7-0.3-3.2-0.9-4.4c-0.6-1.2-1.5-2.3-2.5-3.2c-1.1-0.9-2.5-1.8-4.1-2.5
			c-1.7-0.7-3.5-1.3-5.5-1.8c-2.2-0.6-4.5-1.1-7-1.5c-2.5-0.4-5.1-0.7-7.7-1c-2.6-0.3-5.4-0.6-8.1-0.8c-2.7-0.2-5.4-0.5-8-0.7
			l-13.5-1.1c-10.7-0.9-20.1-2.3-28.1-4.1c-8-1.9-14.9-4.3-20.2-7.3c-5.5-3-9.7-6.7-12.5-11c-2.8-4.3-4.3-9.4-4.3-15.2
			c0-5.8,1.3-11.2,4-16c2.6-4.8,6.1-9.1,10.6-12.9c4.4-3.8,9.6-7.1,15.5-9.9c5.8-2.7,12.1-5.1,18.7-6.9c6.6-1.8,13.5-3.2,20.6-4.1
			c7.1-0.9,14.1-1.4,20.9-1.4c8.5,0,16.1,0.5,22.4,1.6c6.4,1,11.9,2.4,16.5,4c4.6,1.7,8.5,3.6,11.5,5.7c3,2.1,5.4,4.3,7.2,6.3
			c4.5,5.2,6.7,11.2,6.7,17.8c0,2.2-0.2,4.3-0.7,6.3c-0.3,1.3-0.9,2.3-1.8,3c-0.9,0.7-2,1.1-3.1,1.1c-1.6,0-2.9-0.6-3.9-1.6
			c-1-1-1.5-2.3-1.5-3.7c0-1,0.1-2,0.3-3c0.1-0.7,0.2-1.4,0.2-2.1c0-3.9-1.2-7.2-3.5-10.3c-2.4-3.1-6-5.8-10.5-8
			c-4.6-2.2-10.4-3.9-17.1-5.1c-6.7-1.2-14.4-1.8-22.7-1.8c-6.4,0-12.9,0.4-19.3,1.3c-6.4,0.8-12.7,2.1-18.7,3.6
			c-5.9,1.6-11.5,3.6-16.6,5.9c-5.1,2.3-9.6,5.1-13.3,8.1c-3.7,3-6.6,6.4-8.7,10.1c-2,3.6-3.1,7.5-3.1,11.8c0,3.2,0.7,6.1,2.1,8.5
			c1.4,2.5,3.4,4.7,5.8,6.5c2.5,1.9,5.6,3.6,9,4.9c3.5,1.4,7.4,2.6,11.6,3.5c4.2,0.9,8.6,1.7,13.1,2.3c4.6,0.6,9.2,1.1,13.8,1.5
			l13.5,1.1c6.7,0.6,12.8,1.2,18.1,1.8c5.4,0.7,10.2,1.5,14.2,2.5c7,1.8,12.3,4.4,15.8,7.8c3.6,3.5,5.4,8.2,5.4,14
			c0,5.5-1.5,10.4-4.6,14.5c-3,4.1-7,7.5-12.1,10.3c-5,2.7-10.9,4.8-17.5,6.1C159.3,315.2,152.2,315.9,144.7,315.9z M97,299.1
			c-0.2,0-0.6,0-1,0.4c-0.2,0.2-0.4,0.4-0.4,1c0,0.7,0.2,0.9,0.6,1.1l0.1,0.1c0.1,0,0.6,0.3,3.3,1.7c2.1,1.1,5.1,2.2,9.1,3.5
			c4,1.3,9.1,2.5,15.1,3.5c6,1.1,13,1.6,20.9,1.6c7.2,0,14.1-0.7,20.4-2c6.3-1.3,11.8-3.2,16.5-5.8c4.6-2.5,8.2-5.6,10.8-9.2
			c2.5-3.5,3.8-7.6,3.8-12.3c0-4.8-1.4-8.4-4.2-11.2c-2.9-2.9-7.7-5.2-14-6.8c-3.9-1-8.6-1.8-13.8-2.4c-5.3-0.6-11.3-1.3-18-1.8
			l-13.5-1.1c-4.7-0.4-9.4-0.9-14-1.5c-4.7-0.6-9.2-1.4-13.5-2.4c-4.3-1-8.4-2.2-12.1-3.7c-3.8-1.5-7.1-3.3-10-5.4
			c-2.9-2.2-5.2-4.7-6.9-7.7c-1.7-3-2.6-6.5-2.6-10.4c0-4.9,1.2-9.5,3.6-13.7c2.3-4.1,5.6-7.8,9.6-11.1c4-3.3,8.7-6.2,14.1-8.7
			c5.3-2.5,11.1-4.5,17.3-6.2c6.1-1.6,12.5-2.9,19.2-3.7c6.6-0.9,13.3-1.3,19.8-1.3c8.5,0,16.4,0.6,23.4,1.9
			c7,1.3,13.1,3.1,18.1,5.5c5.1,2.4,9.1,5.5,11.9,9.1c2.9,3.7,4.3,8,4.3,12.7c0,0.9-0.1,1.9-0.3,2.9c-0.1,0.7-0.2,1.5-0.2,2.2
			c0,0.4,0.1,0.7,0.4,1c0.2,0.2,0.5,0.4,1.1,0.4c0.2,0,0.4,0,0.7-0.3c0.1-0.1,0.4-0.3,0.5-0.8l0,0c0.4-1.7,0.6-3.6,0.6-5.5
			c0-5.8-1.9-10.8-5.8-15.3c-1.6-1.8-3.8-3.8-6.6-5.7c-2.7-1.9-6.2-3.7-10.5-5.2c-4.3-1.6-9.6-2.9-15.8-3.9
			c-6.1-1-13.5-1.5-21.8-1.5c-6.7,0-13.5,0.5-20.4,1.3c-6.9,0.9-13.6,2.2-20,4c-6.4,1.8-12.5,4-18.1,6.7c-5.6,2.6-10.5,5.8-14.6,9.3
			c-4.1,3.5-7.4,7.5-9.7,11.8c-2.3,4.3-3.5,9-3.5,14.2c0,5,1.2,9.4,3.6,13c2.4,3.7,6.2,7,11.1,9.7c5.1,2.8,11.6,5.1,19.3,6.9
			c7.8,1.8,17,3.2,27.5,4l13.5,1.1c2.6,0.2,5.3,0.5,8,0.7c2.7,0.2,5.5,0.5,8.1,0.8c2.7,0.3,5.4,0.7,7.9,1.1c2.6,0.4,5,0.9,7.3,1.5
			c2.2,0.5,4.2,1.2,6.1,2c1.9,0.8,3.7,1.9,5.1,3.1c1.5,1.3,2.7,2.8,3.5,4.5c0.9,1.7,1.3,3.8,1.3,6.1c0,3.8-1.1,7.4-3.4,10.7
			c-2.2,3.2-5.4,6-9.6,8.3c-4.1,2.3-9.2,4.1-15.1,5.3c-5.9,1.2-12.7,1.9-20.4,1.9c-7.7,0-14.5-0.5-20.3-1.5
			c-5.8-1-10.7-2.1-14.7-3.4c-4-1.3-7-2.4-9.1-3.5c-1.5-0.8-2.2-1.1-2.5-1.3h-0.2l-0.5-0.3C97.4,299.2,97.2,299.1,97,299.1z"/>
	</g>
	<g>
		<path d="M255.6,286.2c0,5.4-1,10-2.9,13.7c-1.9,3.8-4.3,6.7-7.1,8.7h0.4c3.4,0,6.6-0.8,9.4-2.3c2.8-1.5,5.4-3.5,7.7-6
			c2.3-2.4,4.3-5.1,6.1-8.1c1.8-3,3.4-5.9,4.8-8.7c0.3-0.6,0.7-1.1,1.3-1.5c0.6-0.4,1.2-0.5,1.8-0.5c1,0,1.8,0.3,2.4,1.1
			c0.6,0.7,0.9,1.5,0.9,2.3c0,0.5-0.1,0.9-0.3,1.3c-1.5,3.4-3.3,6.8-5.4,10.2c-2.1,3.4-4.6,6.5-7.4,9.2c-2.8,2.7-6,5-9.5,6.7
			c-3.5,1.7-7.4,2.6-11.6,2.6c-3.1,0-6.1-0.5-9-1.4c-2.9-1-5.5-2.5-7.7-4.5c-0.8-0.6-1.5-1.3-2.1-2.1c-0.6-0.7-1.1-1.4-1.4-2.1
			c-0.1-0.1-0.2-0.2-0.2-0.4c-0.4-0.5-0.5-1.1-0.5-1.7c0-0.8,0.3-1.5,0.8-2.1c0.1-0.1,0.1-0.2,0.2-0.2c0.1,0,0.1-0.1,0.2-0.1
			c0.6-0.5,1.2-0.8,1.9-0.9h0.3c0.3,0,0.5,0,0.6,0.1c0.1,0,0.1,0,0.1,0c0,0,0.1,0,0.1,0c0.2,0,0.4,0.1,0.6,0.2
			c0.1,0.1,0.1,0.1,0.2,0.1c0.5,0.4,1,0.8,1.3,1.3c0.4,0.7,0.9,1.3,1.4,1.9c0.5,0.5,1,0.9,1.7,1.3c0.6,0.4,1.4,0.6,2.2,0.6
			c1.5,0,2.9-0.4,4.4-1.3c1.5-0.9,2.8-2.1,3.9-3.8c1.2-1.6,2.1-3.6,2.8-6c0.7-2.3,1.1-4.9,1.1-7.8c0-2.1-0.2-3.9-0.7-5.4
			c-0.4-1.5-1-2.7-1.7-3.6c-0.7-0.9-1.4-1.6-2.1-2.1c-0.8-0.4-1.5-0.7-2.2-0.7c-1.6,0-3.2,0.8-4.8,2.5c-1.6,1.6-3.2,3.7-4.8,6.2
			c-1.6,2.5-3.1,5.3-4.7,8.3c-1.5,3-3.1,6-4.7,8.8c-0.1,9.5-0.3,18.5-0.5,27.1c-0.2,8.6-0.6,16.5-1.1,23.9c-0.5,7.4-1.2,14-2.1,20
			c-0.9,6-2.1,11-3.6,15.3c-1.5,4.2-3.4,7.5-5.6,9.8c-2.2,2.3-4.9,3.4-8.1,3.4c-1,0-2.1-0.2-3.4-0.6c-1.3-0.4-2.5-1.2-3.6-2.5
			c-1.1-1.3-2-3.1-2.8-5.4c-0.8-2.3-1.1-5.5-1.1-9.4c0-5,0.6-10.7,1.8-17.3c1.2-6.5,3-13.5,5.2-20.8c2.2-7.3,4.9-14.8,8-22.5
			c3.1-7.7,6.5-15.2,10.2-22.5c0-2,0-4.1,0-6c0-2,0-3.9,0-5.8c-0.8,0.9-1.7,1.3-2.7,1.3c-1,0-1.8-0.4-2.4-1.1
			c-0.6-0.7-0.9-1.5-0.9-2.3c0-0.4,0.1-0.8,0.3-1.3c1.4-3.2,2.5-6.3,3.2-9.2c0.8-2.9,1.3-5.4,1.7-7.6c0.4-2.2,0.6-3.9,0.7-5.2
			c0.1-1.3,0.1-2,0.1-2c0-0.9,0.3-1.6,1-2.3c0.6-0.6,1.4-1,2.4-1c0.9,0,1.6,0.3,2.3,0.9c0.6,0.6,1,1.4,1,2.3v26.9
			c1.3-2.3,2.7-4.5,4-6.7c1.3-2.2,2.8-4.2,4.2-6c1.5-1.8,3.1-3.2,4.8-4.2c1.7-1.1,3.6-1.6,5.7-1.6c2,0,3.8,0.5,5.4,1.4
			c1.6,0.9,3,2.2,4.2,3.9c1.2,1.6,2.1,3.6,2.7,5.8C255.3,281.2,255.6,283.6,255.6,286.2z M216.7,314.3c-2.9,6.4-5.4,12.9-7.7,19.4
			c-2.3,6.5-4.3,12.7-5.9,18.7c-1.6,6-2.8,11.6-3.7,16.9c-0.9,5.3-1.3,9.9-1.3,13.8c0,1,0.1,2.1,0.2,3.2c0.1,1.2,0.4,2.2,0.7,3.2
			c0.4,1,0.8,1.8,1.5,2.5c0.6,0.7,1.5,1,2.5,1c1.9,0,3.6-1.2,5-3.6c1.4-2.4,2.6-5.7,3.5-9.8c1-4.1,1.8-8.8,2.4-14.2
			c0.6-5.3,1.2-10.9,1.5-16.8c0.4-5.8,0.7-11.7,0.8-17.6C216.5,325.1,216.6,319.5,216.7,314.3z"/>
		<path d="M202.6,401.6c-1.2,0-2.5-0.2-4-0.7c-1.6-0.5-3.1-1.5-4.5-3.1c-1.3-1.5-2.3-3.5-3.2-6.1c-0.8-2.6-1.2-5.8-1.2-10
			c0-5.1,0.6-11,1.9-17.6c1.2-6.6,3-13.6,5.3-21c2.3-7.3,5-15,8.1-22.7c3-7.6,6.4-15.1,10.1-22.2c0-1.9,0-3.8,0-5.6
			c0-0.9,0-1.7,0-2.6c-0.3,0-0.5,0.1-0.8,0.1c-1.6,0-2.9-0.6-3.8-1.7c-0.9-1.1-1.3-2.2-1.3-3.5c0-0.6,0.1-1.3,0.4-2l0-0.1
			c1.4-3.1,2.4-6.1,3.1-8.9c0.7-2.8,1.3-5.3,1.7-7.5c0.4-2.1,0.6-3.8,0.6-5c0.1-1.2,0.1-1.8,0.1-2c0-1.3,0.5-2.6,1.5-3.6
			c1-1,2.3-1.5,3.7-1.5c1.4,0,2.6,0.5,3.6,1.5c1,1,1.6,2.3,1.6,3.7v19.9c0.1-0.2,0.3-0.5,0.4-0.7c1.4-2.3,2.9-4.4,4.4-6.2
			c1.6-1.9,3.4-3.5,5.3-4.6c2-1.3,4.3-1.9,6.8-1.9c2.3,0,4.5,0.6,6.4,1.7c1.9,1.1,3.5,2.6,4.8,4.4c1.3,1.8,2.3,4,3,6.4
			c0.7,2.4,1,5,1,7.7c0,5.7-1,10.6-3.1,14.6c-1,1.9-2.1,3.6-3.3,5.1c1.1-0.3,2.2-0.8,3.3-1.4c2.6-1.4,5.1-3.3,7.2-5.6
			c2.2-2.3,4.2-4.9,5.9-7.8c1.8-2.9,3.4-5.8,4.7-8.5c0.4-1,1.1-1.7,2-2.3c0.9-0.5,1.8-0.8,2.8-0.8c1.6,0,2.9,0.6,3.8,1.7
			c0.9,1.1,1.3,2.2,1.3,3.5c0,0.7-0.1,1.4-0.4,2.1c-1.6,3.5-3.4,7-5.6,10.5c-2.2,3.5-4.7,6.8-7.6,9.6c-2.9,2.9-6.3,5.2-10,7.1
			c-3.8,1.8-8,2.8-12.5,2.8c-3.3,0-6.5-0.5-9.6-1.5c-3.1-1-6-2.7-8.4-4.9c-0.9-0.7-1.7-1.5-2.4-2.3c-0.2-0.2-0.3-0.4-0.5-0.7
			c-0.1,6.9-0.2,13.6-0.4,19.9c-0.2,8.6-0.6,16.6-1.1,24c-0.5,7.4-1.2,14.1-2.1,20.1c-0.9,6-2.1,11.3-3.7,15.7
			c-1.6,4.5-3.6,8-6,10.5C209.5,400.2,206.3,401.6,202.6,401.6z M218.9,281.7v5.2c0,1.9,0,3.8,0,5.8c0,1.9,0,3.9,0,6v0.5l-0.2,0.4
			c-3.7,7.2-7.1,14.7-10.2,22.3c-3.1,7.6-5.7,15.2-8,22.4c-2.2,7.2-4,14.2-5.2,20.6c-1.2,6.4-1.8,12.1-1.8,16.9c0,3.7,0.4,6.6,1,8.8
			c0.7,2.1,1.5,3.7,2.4,4.7c0.9,1,1.8,1.6,2.7,1.9c1.1,0.3,2,0.5,2.8,0.5c2.7,0,4.9-0.9,6.8-2.8c2-2.1,3.8-5.1,5.2-9.1
			c1.5-4.1,2.6-9.1,3.5-14.9c0.9-5.9,1.6-12.5,2-19.8c0.5-7.3,0.8-15.3,1-23.8c0.2-8.5,0.4-17.6,0.5-27l0-0.5l0.2-0.4
			c1.5-2.8,3.1-5.8,4.7-8.8c1.6-3.1,3.2-5.9,4.8-8.5c1.6-2.6,3.3-4.8,5-6.5c2-2,4-3,6.2-3c1,0,2.1,0.3,3.2,0.9
			c1,0.6,1.9,1.4,2.7,2.6c0.8,1.1,1.5,2.5,1.9,4.2c0.5,1.7,0.7,3.7,0.7,5.9c0,3-0.4,5.9-1.2,8.4c-0.8,2.5-1.8,4.7-3.1,6.5
			c-1.3,1.8-2.8,3.3-4.5,4.3c-1.8,1.1-3.6,1.6-5.4,1.6c-1.2,0-2.2-0.3-3.2-0.8c-0.8-0.5-1.5-1-2-1.6l-0.1-0.1
			c-0.6-0.7-1.1-1.4-1.6-2.2c-0.2-0.2-0.4-0.4-0.6-0.6c-0.1,0-0.1-0.1-0.2-0.1c-0.1,0-0.2,0-0.4-0.1h-0.1l-0.2-0.1h-0.2
			c-0.2,0-0.4,0.1-0.7,0.4c0,0-0.1,0.1-0.1,0.1l0,0c-0.3,0.4-0.4,0.7-0.4,0.9c0,0.1,0,0.3,0.2,0.6l0.3,0.5v0.1
			c0.3,0.5,0.7,1.1,1.2,1.7c0.5,0.6,1.1,1.2,1.8,1.7l0.1,0.1c2,1.8,4.4,3.2,7,4.1c2.7,0.9,5.5,1.3,8.4,1.3c3.9,0,7.6-0.8,10.8-2.4
			c3.3-1.6,6.3-3.8,9-6.3c2.7-2.6,5.1-5.6,7.1-8.9c2-3.3,3.8-6.7,5.3-10c0.1-0.1,0.1-0.3,0.1-0.5c0-0.2,0-0.6-0.4-1
			c-0.2-0.2-0.4-0.4-0.9-0.4c-0.3,0-0.5,0.1-0.8,0.2c-0.2,0.1-0.4,0.4-0.5,0.7l0,0.1c-1.4,2.8-3.1,5.8-4.9,8.8
			c-1.9,3.1-4,5.9-6.4,8.4c-2.4,2.6-5.1,4.7-8.1,6.3c-3.1,1.7-6.6,2.6-10.3,2.6h-6.4l5-3.5c2.5-1.8,4.7-4.5,6.5-8
			c1.8-3.5,2.7-7.8,2.7-12.9c0-2.4-0.3-4.6-0.9-6.7c-0.5-2-1.3-3.8-2.4-5.2c-1-1.4-2.2-2.5-3.6-3.3c-1.4-0.8-2.8-1.1-4.5-1.1
			c-1.7,0-3.3,0.4-4.7,1.3c-1.5,1-3,2.3-4.4,3.9c-1.4,1.7-2.8,3.6-4.1,5.7c-1.3,2.2-2.7,4.5-4,6.7l-3.6,6.1v-34
			c0-0.4-0.1-0.7-0.4-0.9c-0.3-0.3-0.6-0.4-0.9-0.4c-0.4,0-0.7,0.1-1,0.4c-0.3,0.3-0.4,0.5-0.4,0.9c0,0.1,0,0.2-0.1,2.1
			c-0.1,1.4-0.3,3.2-0.7,5.5c-0.4,2.2-1,4.8-1.7,7.8c-0.8,3-1.9,6.1-3.3,9.4c-0.1,0.2-0.1,0.4-0.1,0.6c0,0.2,0,0.6,0.4,1
			c0.2,0.2,0.4,0.4,0.9,0.4c0.3,0,0.8-0.1,1.3-0.6L218.9,281.7z M234.3,301.8c0.3,0.3,0.8,0.7,1.2,0.9c0.3,0.2,0.7,0.3,1.2,0.3
			c1.1,0,2.2-0.3,3.4-1c1.2-0.7,2.4-1.8,3.4-3.2c1-1.5,1.9-3.3,2.6-5.4c0.7-2.1,1-4.6,1-7.2c0-1.9-0.2-3.5-0.6-4.8
			c-0.4-1.3-0.8-2.3-1.4-3.1c-0.5-0.7-1-1.2-1.5-1.5c-0.5-0.3-0.9-0.4-1.2-0.4c-1,0-2.2,0.6-3.4,1.9c-1.5,1.5-3,3.5-4.5,5.9
			c-1.5,2.5-3.1,5.2-4.6,8.2c-0.9,1.9-1.9,3.7-2.9,5.5c0.4-0.1,0.7-0.2,1.1-0.2l0.4,0c0.4,0,0.8,0,1.1,0.1c0.1,0,0.2,0,0.2,0.1
			c0.2,0,0.5,0.1,0.8,0.2h0.1l0.5,0.3c0.7,0.5,1.4,1.1,1.8,1.8l0.1,0.1C233.5,300.8,233.9,301.3,234.3,301.8z M203,395
			c-1.6,0-2.9-0.6-3.9-1.6c-0.8-0.9-1.5-1.9-1.9-3.2c-0.4-1.1-0.7-2.4-0.8-3.7c-0.1-1.2-0.2-2.4-0.2-3.4c0-4.1,0.5-8.8,1.3-14.2
			c0.9-5.3,2.1-11,3.8-17.1c1.6-6,3.6-12.4,5.9-18.9c2.3-6.5,4.9-13.1,7.8-19.5l3.9-8.8l-0.2,9.6c-0.1,5.4-0.3,11-0.4,16.8
			c-0.2,5.9-0.5,11.9-0.8,17.7c-0.4,5.9-0.9,11.5-1.5,16.9c-0.6,5.4-1.5,10.2-2.4,14.4c-1,4.3-2.3,7.8-3.8,10.3
			C207.9,393.5,205.7,395,203,395z M214.6,324.4c-1.3,3.3-2.6,6.6-3.7,9.9c-2.3,6.4-4.2,12.7-5.8,18.6c-1.6,5.9-2.8,11.6-3.7,16.7
			c-0.9,5.1-1.3,9.7-1.3,13.5c0,0.9,0.1,1.9,0.2,3c0.1,1,0.3,1.9,0.6,2.8c0.3,0.7,0.6,1.3,1.1,1.8c0.2,0.2,0.5,0.4,1.1,0.4
			c0.4,0,1.8,0,3.3-2.7c1.3-2.2,2.4-5.4,3.3-9.3c0.9-4,1.7-8.7,2.4-14c0.6-5.3,1.1-10.9,1.5-16.7c0.4-5.8,0.7-11.7,0.8-17.6
			C214.4,328.8,214.5,326.5,214.6,324.4z"/>
	</g>
	<g>
		<path d="M341.7,286.2c-0.2,0.5-0.7,1.4-1.4,2.9c-0.7,1.5-1.7,3.2-2.8,5.1c-1.1,1.9-2.5,3.9-4,6c-1.5,2.1-3.2,4-5.1,5.8
			c-1.9,1.8-3.9,3.2-6,4.3c-2.2,1.1-4.4,1.7-6.8,1.7c-3.4,0-6.2-1.1-8.5-3.2c-2.3-2.2-4-4.9-5-8.1c-2,3.3-4.3,6-7.1,7.9
			c-2.7,2-5.5,2.9-8.2,2.9c-2.2,0-4.1-0.4-5.9-1.2c-1.8-0.8-3.2-1.9-4.5-3.3c-1.2-1.4-2.2-3.1-2.8-5c-0.7-1.9-1-4-1-6.3
			c0-4.6,0.8-8.6,2.3-12c1.5-3.5,3.5-6.4,5.9-8.7c2.4-2.3,5-4.1,7.9-5.3c2.9-1.2,5.7-1.8,8.4-1.8c1.8,0,3.5,0.2,5,0.7
			c1.5,0.5,2.8,1,3.9,1.6c1.1,0.6,1.9,1.1,2.5,1.6c0.6,0.5,0.9,0.8,1,0.8c0.6,0.8,1,1.5,1,2.4c0,0.9-0.3,1.7-1,2.3
			c-0.6,0.7-1.4,1-2.3,1c-0.9,0-1.7-0.3-2.4-1c-0.1-0.1-0.4-0.3-0.8-0.7c-0.4-0.3-1-0.7-1.7-1c-0.7-0.4-1.5-0.7-2.5-0.9
			c-1-0.3-2.1-0.4-3.3-0.4c-1.8,0-3.7,0.4-5.8,1.2c-2,0.8-3.9,2.1-5.6,3.8c-1.7,1.7-3.1,3.9-4.2,6.5c-1.1,2.6-1.7,5.7-1.7,9.2
			c0,1.1,0.1,2.2,0.4,3.4c0.2,1.1,0.6,2.2,1.2,3.1c0.6,0.9,1.4,1.7,2.4,2.3c1,0.6,2.2,0.9,3.7,0.9c1.1,0,2.3-0.4,3.6-1.1
			c1.4-0.7,2.7-1.8,3.9-3.2c1.3-1.5,2.4-3.3,3.4-5.5c1-2.2,1.7-4.8,2.1-7.9c0.1-0.8,0.5-1.5,1.1-2.1c0.6-0.6,1.4-0.8,2.3-0.8
			c0.8,0,1.5,0.3,2.1,1c0.6,0.6,0.9,1.4,1,2.2c0.1,1.1,0.2,2.7,0.4,4.7c0.2,2,0.6,4,1.2,6c0.6,2,1.5,3.7,2.8,5.2
			c1.2,1.5,2.9,2.2,5.1,2.2c1.4,0,2.8-0.4,4.2-1.1c1.4-0.8,2.7-1.8,4-3c1.3-1.3,2.6-2.7,3.8-4.3c1.2-1.6,2.3-3.2,3.3-4.9
			c1-1.6,1.9-3.2,2.6-4.7c0.8-1.5,1.4-2.8,1.9-3.9c0.3-0.6,0.7-1.1,1.3-1.5c0.6-0.4,1.2-0.5,1.8-0.5c1,0,1.8,0.4,2.4,1.1
			c0.6,0.7,0.9,1.5,0.9,2.3C342,285.3,341.9,285.7,341.7,286.2z"/>
		<path d="M315.5,314c-3.9,0-7.2-1.3-9.9-3.8c-1.7-1.6-3-3.4-4.1-5.5c-1.7,2.2-3.5,4-5.6,5.4c-3.1,2.2-6.2,3.3-9.4,3.3
			c-2.4,0-4.7-0.5-6.7-1.4c-2-0.9-3.7-2.2-5.1-3.8c-1.4-1.6-2.5-3.5-3.2-5.7c-0.7-2.1-1.1-4.5-1.1-6.9c0-4.8,0.8-9.1,2.5-12.8
			c1.6-3.7,3.8-6.8,6.3-9.3c2.6-2.5,5.4-4.4,8.5-5.7c3.1-1.3,6.2-1.9,9.1-1.9c2,0,3.9,0.3,5.6,0.8c1.6,0.5,3,1.1,4.2,1.8
			c1.2,0.7,2.1,1.3,2.8,1.8c0.9,0.8,1,0.9,1.1,0.9l0.1,0.1c0.9,1.1,1.4,2.3,1.4,3.6c0,1.4-0.5,2.6-1.5,3.7c-1,1-2.3,1.6-3.7,1.6
			c-1.4,0-2.7-0.5-3.7-1.5c0,0-0.1-0.1-0.6-0.5c-0.2-0.2-0.6-0.4-1.3-0.8c-0.6-0.3-1.3-0.6-2.1-0.8c-0.8-0.2-1.7-0.3-2.8-0.3
			c-1.6,0-3.3,0.4-5.1,1.1c-1.8,0.7-3.4,1.8-4.9,3.4c-1.5,1.5-2.8,3.5-3.9,5.9c-1,2.3-1.5,5.2-1.5,8.5c0,1,0.1,2,0.3,3
			c0.2,0.9,0.5,1.7,1,2.5c0.4,0.7,1,1.2,1.7,1.6c0.7,0.4,1.6,0.6,2.7,0.6c0.7,0,1.7-0.3,2.8-0.8c1.1-0.6,2.3-1.5,3.4-2.8
			c1.1-1.3,2.2-3,3.1-5.1c0.9-2,1.6-4.5,2-7.3c0.2-1.3,0.8-2.4,1.8-3.3c1-0.9,2.2-1.3,3.5-1.3c1.3,0,2.6,0.5,3.5,1.6
			c0.9,1,1.4,2.1,1.5,3.4c0.1,1.1,0.2,2.6,0.3,4.7c0.2,1.9,0.5,3.8,1.1,5.6c0.5,1.7,1.3,3.2,2.4,4.5c0.9,1,2,1.5,3.6,1.5
			c1.1,0,2.1-0.3,3.2-0.9c1.2-0.7,2.4-1.6,3.6-2.7c1.2-1.2,2.4-2.5,3.6-4c1.2-1.5,2.2-3.1,3.2-4.7c1-1.6,1.8-3.1,2.6-4.6
			c0.8-1.6,1.4-2.9,1.9-3.9c0.4-1,1.1-1.7,2-2.3c0.9-0.5,1.8-0.8,2.8-0.8c1.6,0,2.9,0.6,3.9,1.8c0.9,1.1,1.4,2.3,1.4,3.6
			c0,0.7-0.1,1.3-0.4,2l0,0.1c-0.2,0.5-0.7,1.4-1.4,2.9c-0.8,1.5-1.7,3.3-2.9,5.3c-1.2,2-2.5,4-4.1,6.2c-1.6,2.2-3.4,4.2-5.3,6.1
			c-2,1.9-4.2,3.4-6.5,4.6C320.8,313.4,318.2,314,315.5,314z M302.5,296l1.3,4.1c0.9,2.9,2.5,5.4,4.5,7.3c2,1.8,4.3,2.7,7.2,2.7
			c2.1,0,4.1-0.5,5.9-1.5c2-1.1,3.9-2.4,5.6-4c1.8-1.7,3.4-3.5,4.8-5.5c1.5-2,2.8-4,3.9-5.9c1.1-1.9,2-3.5,2.7-5
			c0.7-1.4,1.2-2.4,1.4-2.9c0.1-0.2,0.1-0.3,0.1-0.4c0-0.2,0-0.6-0.5-1.1c-0.2-0.2-0.4-0.4-0.9-0.4c-0.3,0-0.5,0.1-0.8,0.2
			c-0.2,0.1-0.4,0.4-0.5,0.7c-0.5,1.1-1.2,2.4-2,4c-0.8,1.6-1.7,3.2-2.7,4.9c-1,1.7-2.2,3.4-3.4,5c-1.3,1.7-2.6,3.2-4,4.5
			c-1.4,1.4-2.9,2.5-4.4,3.3c-1.7,0.9-3.4,1.4-5.1,1.4c-2.7,0-5-1-6.6-2.9c-1.4-1.7-2.4-3.6-3.1-5.8c-0.7-2.1-1.1-4.3-1.3-6.4
			c-0.2-2.1-0.3-3.6-0.4-4.8c0-0.3-0.2-0.6-0.5-1c-0.3-0.3-0.5-0.4-0.7-0.4c-0.4,0-0.7,0.1-1,0.4c-0.3,0.3-0.4,0.5-0.5,0.9
			c-0.4,3.2-1.2,6-2.3,8.4c-1.1,2.4-2.3,4.4-3.7,6c-1.4,1.6-2.9,2.9-4.5,3.7c-1.7,0.8-3.1,1.3-4.5,1.3c-1.8,0-3.4-0.4-4.7-1.1
			c-1.3-0.7-2.3-1.7-3-2.9c-0.7-1.1-1.2-2.4-1.5-3.7c-0.3-1.3-0.4-2.5-0.4-3.8c0-3.8,0.6-7.2,1.9-10c1.2-2.8,2.8-5.2,4.6-7.1
			c1.9-1.9,4-3.3,6.3-4.2c2.3-0.9,4.4-1.4,6.5-1.4c1.4,0,2.7,0.2,3.8,0.5c1.1,0.3,2,0.7,2.9,1.1c0.8,0.4,1.5,0.8,2,1.2
			c0.6,0.5,0.8,0.7,1,0.8c0.3,0.3,0.6,0.4,1,0.4c0.3,0,0.5,0,0.9-0.4c0.3-0.3,0.4-0.6,0.4-1c0-0.1,0-0.5-0.4-1
			c-0.1-0.1-0.4-0.3-0.8-0.7c-0.5-0.4-1.2-0.9-2.2-1.4c-1-0.5-2.2-1-3.6-1.5c-1.3-0.4-2.8-0.6-4.4-0.6c-2.4,0-5,0.5-7.6,1.6
			c-2.6,1.1-5.1,2.7-7.3,4.8c-2.2,2.2-4.1,4.9-5.5,8.1c-1.4,3.2-2.2,7-2.2,11.3c0,2,0.3,4,0.9,5.7c0.6,1.7,1.4,3.2,2.5,4.4
			c1,1.2,2.3,2.1,3.8,2.8c1.5,0.7,3.2,1,5.1,1c2.3,0,4.7-0.9,7.1-2.6c2.5-1.8,4.7-4.3,6.6-7.3L302.5,296z"/>
	</g>
	<g>
		<path d="M392.9,286.3c-0.4,0.6-0.9,1.8-1.8,3.5c-0.8,1.7-2,3.6-3.4,5.7c-1.4,2.1-3.1,4.3-5.1,6.6c-2,2.3-4.3,4.4-6.8,6.3
			c-2.6,1.9-5.4,3.5-8.6,4.7c-3.2,1.2-6.6,1.8-10.4,1.8c-3.3,0-6.3-0.6-8.8-1.8c-2.6-1.2-4.8-2.9-6.6-5.1c-1.8-2.2-3.2-4.8-4.1-7.7
			c-0.9-3-1.4-6.3-1.4-9.9c0-3.5,0.5-6.8,1.5-9.9c1-3.1,2.3-5.7,4.1-8c1.7-2.3,3.7-4.1,6-5.4c2.3-1.3,4.7-2,7.3-2
			c1.9,0,3.7,0.3,5.3,1c1.6,0.7,2.9,1.6,4,2.7c1.1,1.1,1.9,2.3,2.5,3.7c0.6,1.3,0.9,2.7,0.9,4c0,1.3-0.2,2.5-0.5,3.6
			c-0.3,1.1-0.7,2.1-1.2,2.9c-0.5,0.8-1.1,1.5-1.7,2c-0.6,0.5-1.3,0.7-1.9,0.7c-1,0-1.8-0.3-2.4-1c-0.6-0.6-0.9-1.4-0.9-2.4
			c0-0.5,0.1-0.9,0.3-1.2c0.2-0.4,0.4-0.7,0.7-1.1c0.3-0.4,0.5-0.8,0.7-1.4c0.2-0.6,0.3-1.3,0.3-2.1c0-1.2-0.6-2.3-1.7-3.3
			c-1.1-1-2.6-1.5-4.3-1.5c-1.6,0-3.2,0.5-4.7,1.5c-1.5,1-2.8,2.3-3.9,4c-1.1,1.7-2,3.6-2.7,5.9c-0.7,2.2-1,4.6-1,7.1
			c0,2.4,0.3,4.7,0.9,6.8c0.6,2.2,1.5,4.1,2.6,5.7c1.2,1.7,2.6,3,4.4,4c1.8,1,3.9,1.5,6.3,1.5c3.2,0,6.1-0.6,8.8-1.7
			c2.7-1.1,5.1-2.6,7.4-4.3c2.2-1.8,4.2-3.7,5.9-5.7c1.7-2.1,3.1-4,4.3-5.9c1.2-1.8,2.1-3.4,2.8-4.8c0.7-1.4,1.1-2.2,1.2-2.6
			c0.2-0.6,0.6-1,1.2-1.4c0.6-0.3,1.2-0.5,1.8-0.5c1,0,1.8,0.3,2.4,1.1s0.9,1.5,0.9,2.4C393.3,285.3,393.2,285.7,392.9,286.3z"/>
		<path d="M356.8,316.9c-3.6,0-6.8-0.7-9.7-2c-2.8-1.3-5.3-3.2-7.2-5.6c-2-2.4-3.5-5.2-4.5-8.4c-1-3.1-1.5-6.7-1.5-10.5
			c0-3.7,0.5-7.2,1.6-10.4c1.1-3.3,2.5-6.1,4.4-8.6c1.9-2.5,4.1-4.5,6.6-5.9c2.6-1.5,5.3-2.2,8.2-2.2c2.2,0,4.2,0.4,6,1.2
			c1.8,0.8,3.4,1.8,4.6,3.1c1.2,1.3,2.2,2.7,2.9,4.2c0.7,1.6,1.1,3.2,1.1,4.8c0,1.5-0.2,2.8-0.6,4.1c-0.4,1.3-0.8,2.4-1.4,3.4
			c-0.6,1.1-1.4,1.9-2.2,2.6c-1,0.8-2,1.1-3.1,1.1c-1.5,0-2.8-0.5-3.8-1.6c-1-1-1.5-2.3-1.5-3.7c0-0.8,0.2-1.6,0.6-2.2
			c0.2-0.4,0.5-0.8,0.8-1.2c0.2-0.2,0.3-0.6,0.5-1c0.1-0.2,0.2-0.7,0.2-1.5c0-0.4-0.1-1.1-1-1.9c-0.8-0.7-1.8-1-3.1-1
			c-1.3,0-2.4,0.4-3.6,1.2c-1.3,0.8-2.4,2-3.4,3.4c-1,1.5-1.8,3.3-2.4,5.3c-0.6,2.1-0.9,4.3-0.9,6.6c0,2.2,0.3,4.3,0.8,6.3
			c0.5,1.9,1.3,3.7,2.3,5.1c1,1.4,2.3,2.6,3.8,3.4c1.5,0.8,3.3,1.2,5.4,1.2c2.9,0,5.6-0.5,8-1.6c2.5-1.1,4.8-2.4,6.9-4.1
			c2.1-1.7,4-3.5,5.6-5.4c1.6-2,3.1-3.9,4.2-5.7c1.1-1.8,2.1-3.3,2.7-4.6c0.9-1.8,1.1-2.3,1.1-2.4l0-0.1c0.4-1,1.1-1.8,2-2.3
			c0.9-0.5,1.8-0.7,2.8-0.7c1.5,0,2.9,0.6,3.9,1.7c0.9,1.1,1.4,2.3,1.4,3.6c0,0.6-0.2,1.3-0.5,2.1l-0.1,0.2c-0.3,0.6-1,1.8-1.8,3.4
			c-0.9,1.8-2.1,3.8-3.5,5.9c-1.5,2.2-3.2,4.5-5.3,6.8c-2.1,2.4-4.5,4.6-7.1,6.5c-2.7,2-5.7,3.7-9.1,4.9
			C364.4,316.2,360.7,316.9,356.8,316.9z M354.7,267.2c-2.2,0-4.3,0.6-6.3,1.7c-2,1.2-3.9,2.8-5.4,4.9c-1.6,2.1-2.9,4.6-3.8,7.4
			c-0.9,2.9-1.4,6-1.4,9.3c0,3.4,0.4,6.5,1.3,9.3c0.9,2.7,2.1,5.1,3.8,7.1c1.6,2,3.6,3.5,5.9,4.6c2.3,1.1,5,1.6,8,1.6
			c3.5,0,6.7-0.6,9.7-1.7c3-1.2,5.8-2.7,8.2-4.4c2.4-1.8,4.6-3.8,6.5-6c1.9-2.2,3.6-4.4,5-6.4c1.4-2.1,2.5-3.9,3.3-5.5
			c0.8-1.6,1.4-2.8,1.8-3.5c0.2-0.4,0.2-0.6,0.2-0.6c0-0.4-0.1-0.7-0.4-1.1c-0.2-0.2-0.4-0.4-1-0.4c-0.3,0-0.6,0.1-0.8,0.2
			c-0.2,0.1-0.3,0.2-0.3,0.4c-0.1,0.3-0.4,1-1.3,2.7c-0.7,1.4-1.7,3.1-2.9,5c-1.2,1.9-2.7,3.9-4.5,6c-1.8,2.2-3.8,4.2-6.2,6
			c-2.3,1.9-5,3.4-7.8,4.6c-2.9,1.2-6.1,1.9-9.5,1.9c-2.8,0-5.2-0.6-7.3-1.7c-2-1.1-3.7-2.7-5.1-4.6c-1.3-1.8-2.3-4-2.9-6.3
			c-0.6-2.3-0.9-4.8-0.9-7.3c0-2.7,0.4-5.3,1.1-7.7c0.7-2.4,1.7-4.6,2.9-6.4c1.2-1.9,2.7-3.4,4.4-4.5c1.8-1.2,3.7-1.8,5.8-1.8
			c2.2,0,4.1,0.7,5.6,2c1.6,1.4,2.4,3,2.4,4.8c0,1.1-0.1,2-0.4,2.8c-0.3,0.7-0.6,1.3-0.9,1.8c-0.2,0.4-0.4,0.7-0.6,1
			c0,0,0,0.1,0,0.3c0,0.4,0.1,0.7,0.4,1c0.2,0.2,0.4,0.4,1,0.4c0.3,0,0.5-0.2,0.7-0.3c0.4-0.3,0.9-0.8,1.2-1.5
			c0.4-0.7,0.8-1.5,1-2.5c0.3-0.9,0.4-2,0.4-3.1c0-1.1-0.3-2.1-0.7-3.2c-0.5-1.1-1.2-2.2-2.2-3.1c-0.9-0.9-2-1.7-3.4-2.2
			C357.8,267.4,356.3,267.2,354.7,267.2z"/>
	</g>
	<g>
		<path d="M397.5,301c1.2,1.7,2.8,3.1,4.7,4.1c1.9,1,4.3,1.5,7.1,1.5c2.9,0,5.5-0.7,7.8-2.1c2.3-1.4,4.5-3.2,6.4-5.4
			c1.9-2.2,3.6-4.7,5.2-7.4c1.5-2.7,2.9-5.5,4.1-8.2c0.3-0.6,0.7-1.1,1.2-1.4c0.5-0.3,1.1-0.5,1.8-0.5c1,0,1.8,0.3,2.4,1.1
			c0.6,0.7,0.9,1.5,0.9,2.3c0,0.3,0,0.5-0.1,0.7c-0.1,0.2-0.1,0.4-0.3,0.7c-4,8.9-8.4,15.6-13.2,20.1c-4.8,4.5-10.1,6.8-16.2,6.9
			c-3.9,0-7.2-0.7-10-2.2c-2.8-1.5-5.1-3.4-6.9-5.8c-1.8-2.4-3.2-5-4-8c-0.9-3-1.3-6-1.3-8.9c0-3,0.4-5.7,1.1-8.2
			c0.7-2.5,1.8-4.7,3.2-6.6c1.4-1.9,3-3.3,4.9-4.4c1.9-1.1,4-1.6,6.3-1.6c1.3,0,2.7,0.3,4,0.8c1.3,0.6,2.5,1.3,3.5,2.4
			c1.1,1,1.9,2.3,2.5,3.7c0.6,1.5,1,3.1,1,5c0,2.4-0.4,4.6-1.2,6.7c-0.8,2.1-1.9,4.1-3.4,5.9c-1.4,1.8-3.1,3.5-5.1,5
			C401.9,298.5,399.8,299.8,397.5,301z M394.8,295.3c1.8-0.8,3.5-1.7,4.9-2.9c1.5-1.2,2.8-2.5,3.8-3.9c1.1-1.4,1.9-2.9,2.5-4.4
			c0.6-1.5,0.9-3.1,0.9-4.7c0-1.8-0.4-3.1-1.3-4c-0.9-0.9-1.9-1.4-3.1-1.4c-1.6,0-2.9,0.4-4,1.3c-1.1,0.9-2,2-2.7,3.4
			c-0.7,1.4-1.2,3-1.5,4.7c-0.3,1.7-0.5,3.4-0.5,5.1c0,1.1,0.1,2.2,0.3,3.3C394.3,293.1,394.6,294.2,394.8,295.3z"/>
		<path d="M409.4,315.1c-4.2,0-7.9-0.8-10.9-2.5c-3-1.6-5.6-3.7-7.5-6.3c-1.9-2.5-3.4-5.4-4.3-8.6c-0.9-3.1-1.4-6.3-1.4-9.5
			c0-3.2,0.4-6.1,1.2-8.8c0.8-2.7,1.9-5.1,3.5-7.2c1.5-2.1,3.4-3.7,5.5-4.9c2.2-1.2,4.6-1.8,7.2-1.8c1.6,0,3.2,0.3,4.7,1
			c1.5,0.6,2.9,1.6,4.1,2.8c1.2,1.2,2.2,2.6,3,4.3c0.7,1.7,1.1,3.6,1.1,5.8c0,2.6-0.5,5.1-1.4,7.4c-0.9,2.3-2.1,4.4-3.7,6.4
			c-1.5,1.9-3.4,3.7-5.5,5.3c-1.4,1.1-2.9,2.1-4.5,3c0.8,0.7,1.6,1.3,2.6,1.8c1.6,0.9,3.7,1.3,6.2,1.3c2.5,0,4.8-0.6,6.8-1.8
			c2.1-1.3,4.1-2.9,5.9-5c1.8-2.1,3.5-4.5,4.9-7.1c1.5-2.7,2.8-5.4,4-8.1c0.5-1,1.1-1.8,2-2.3c0.8-0.5,1.8-0.8,2.8-0.8
			c1.5,0,2.9,0.6,3.9,1.7c0.9,1.1,1.4,2.3,1.4,3.5c0,0.5-0.1,0.9-0.2,1.3c-0.1,0.3-0.2,0.6-0.4,1c-4.1,9-8.7,16-13.6,20.6
			C421.8,312.5,415.9,315,409.4,315.1C409.4,315.1,409.4,315.1,409.4,315.1z M402.6,269.4c-1.9,0-3.7,0.4-5.3,1.3
			c-1.6,0.9-3.1,2.2-4.3,3.8c-1.2,1.7-2.2,3.7-2.9,6c-0.7,2.3-1,4.9-1,7.7c0,2.8,0.4,5.6,1.2,8.4c0.8,2.7,2.1,5.2,3.7,7.4
			c1.6,2.1,3.7,3.9,6.3,5.2c2.5,1.3,5.6,2,9.1,2c5.5-0.1,10.4-2.2,14.8-6.4c4.6-4.3,8.8-10.8,12.7-19.4l0-0.1
			c0.1-0.2,0.1-0.3,0.1-0.3c0,0,0,0,0,0c0,0,0-0.1,0-0.2c0-0.2,0-0.6-0.4-1c-0.2-0.2-0.4-0.4-1-0.4c-0.3,0-0.5,0.1-0.7,0.2
			c-0.2,0.1-0.3,0.3-0.5,0.6c-1.2,2.8-2.6,5.6-4.2,8.4c-1.6,2.9-3.4,5.5-5.4,7.8c-2.1,2.4-4.4,4.3-6.9,5.8c-2.6,1.5-5.6,2.3-8.8,2.3
			c-3.1,0-5.8-0.6-8-1.8c-2.2-1.2-4-2.7-5.4-4.6l-1.3-1.9l2.1-1c2.1-1,4.2-2.3,6.1-3.7c1.8-1.4,3.5-3,4.8-4.7
			c1.3-1.6,2.3-3.5,3.1-5.4c0.7-1.9,1.1-3.9,1.1-6c0-1.6-0.3-3-0.8-4.2c-0.5-1.2-1.3-2.3-2.1-3.1c-0.9-0.8-1.9-1.5-3-2
			C404.7,269.7,403.6,269.4,402.6,269.4z M393.6,297.9l-0.6-2.1c-0.3-1.1-0.6-2.3-0.8-3.5c-0.2-1.3-0.3-2.5-0.3-3.7
			c0-1.8,0.2-3.6,0.5-5.5c0.4-1.9,0.9-3.6,1.7-5.2c0.8-1.7,1.9-3,3.2-4.1c1.5-1.1,3.2-1.7,5.2-1.7c1.7,0,3.2,0.7,4.5,1.9
			c1.2,1.3,1.9,3.1,1.9,5.3c0,1.8-0.3,3.6-1,5.4c-0.6,1.7-1.6,3.4-2.7,4.9c-1.1,1.5-2.5,2.9-4.2,4.2c-1.6,1.3-3.4,2.3-5.4,3.2
			L393.6,297.9z M402.6,276c-1.1,0-2.1,0.3-2.8,0.9c-0.9,0.7-1.6,1.6-2.2,2.8c-0.6,1.2-1.1,2.6-1.4,4.2c-0.3,1.6-0.4,3.2-0.4,4.8
			c0,0.9,0.1,1.9,0.3,3c0.1,0.3,0.1,0.6,0.2,0.9c0.9-0.5,1.7-1,2.4-1.6c1.3-1.1,2.5-2.2,3.5-3.5c0.9-1.2,1.7-2.6,2.2-3.9
			c0.5-1.3,0.8-2.7,0.8-4c0-1.2-0.3-2.1-0.8-2.6C403.7,276.2,403.2,276,402.6,276z"/>
	</g>
</g>
</svg>
